<?xml version="1.0" encoding="UTF-8"?>
<svg id="a" width="71.279mm" height="332.19mm" version="1.1" viewBox="0 0 71.279 332.19" xmlns="http://www.w3.org/2000/svg">
 <g id="b" transform="translate(-34.531 186.27)">
  <g id="c">
   <rect id="d" x="48.99" y="-186.25" width="34.332" height="260.74" rx="1.1038" ry="2.6332" fill="#b7b7b7"/>
   <g id="e">
    <circle id="f" cx="66.156" cy="21.843" r="3.6649" fill="#999"/>
    <path id="g" transform="matrix(.052437 0 0 .052437 75.57 23.324)" d="m-158.46 8.3109c-5.4852 3.1581-36.718 3.1208-42.196-0.050439-5.4776-3.1712-21.062-30.238-21.054-36.568 8e-3 -6.3294 15.656-33.359 21.142-36.517s36.718-3.1208 42.196 0.05044c5.4776 3.1712 21.062 30.238 21.054 36.568-8e-3 6.3294-15.656 33.359-21.142 36.517z" fill="#ccc"/>
   </g>
  </g>
  <g id="h">
   <g>
    <rect id="i" x="46.435" y="38.405" width="44.37" height="36.469" rx="2.9761" ry="2.9761" fill="#d8d8d8"/>
    <rect id="j" x="49.407" y="51.359" width="31.151" height="21.382" rx="2.9761" ry="2.9761" fill="#c8c8c8"/>
    <rect id="k" x="46.435" y="38.023" width="44.37" height="21.382" rx="2.9761" ry="2.9761" fill="#e7e6e6"/>
    <rect id="l" x="44.107" y="74.665" width="10.022" height="13.458" rx="1.2808" ry="1.2808" fill="#cdcdcd"/>
    <rect id="m" x="78.671" y="74.665" width="9.919" height="13.458" rx="1.2808" ry="1.2808" fill="#cdcdcd"/>
   </g>
   <g id="n" transform="matrix(1.1369 0 0 1.1358 -6.7131 -10.457)" fill="#a2a2a2">
    <rect id="o" x="58.87" y="77.05" width="6.8896" height="2.7552" rx=".73456" ry=".98572"/>
    <rect id="p" x="66.769" y="77.05" width="6.8896" height="2.7552" rx=".73456" ry=".98572"/>
   </g>
   <rect id="q" x="44.107" y="74.786" width="44.099" height="3.188" rx="1.2808" ry="1.2808" fill="#cdcdcd"/>
   <g id="servo">
    <g>
     <rect id="r" x="60.748" y="64.177" width="14.886" height="8.4409" rx="1.0477" ry="1.0477" fill="#7fb1ef"/>
     <rect id="s" x="66.159" y="72.507" width="7.5001" height="4.4684" rx=".68616" ry=".68616" fill="#ededed"/>
     <rect id="t" x="60.801" y="71.291" width="14.886" height="1.424" rx="1.0477" ry="1.0477" fill="#5d9dec"/>
    </g>
    <rect id="servo-arm" x="69.992" y="74.716" width="16.533" height="2.259" rx=".60597" ry=".68616" fill="#ededed"/>
    <rect id="servo-knob" x="78.65" y="75.834" width="5.0626" height="5.257" rx=".68616" ry=".68616" fill="#ededed"/>
    <rect id="u" x="52.147" y="59.405" width="24.306" height="7.335" rx="1.0477" ry="1.0477" fill="#8ebbf2"/>
   </g>
   <g>
    <rect id="v" x="47.41" y="79.468" width="17.931" height="6.1547" rx=".57187" ry=".57187" fill="#8a7f7a"/>
    <rect id="w" x="53.76" y="80.461" width="33.828" height="7.7295" rx=".76303" ry=".76303" fill="#d8d8d8"/>
    <rect id="x" x="46.435" y="83.462" width="8.7317" height="4.6616" rx=".76303" ry=".76303" fill="#d8d8d8"/>
    <circle id="y" cx="51.471" cy="83.431" r="2.3391" fill="#b2b2b2"/>
   </g>
   <rect id="z" x="49.439" y="41.923" width="3.5603" height="5.0579" rx="1.2" ry="1.2" fill="#4d4d4d"/>
   <rect id="aa" x="44.729" y="42.413" width="7.8002" height="4.022" rx="1.5" ry="1.5" fill="#666"/>
  </g>
  <g id="ab">
   <rect id="ac" x="76.577" y="61.146" width="17.435" height="4.8222" rx="1.5" ry="1.5" fill="#929292"/>
   <rect id="ad" x="82.187" y="64.557" width="6.2154" height="3.0887" rx="1.2197" ry="1.22" fill="#686868"/>
   <g>
    <rect id="ae" x="76.577" y="-186.27" width="14.228" height="252.24" rx="1.5" ry="1.5" fill="#929292"/>
    <rect id="af" x="80.428" y="50.142" width="6.5264" height="9.986" rx="1.2" ry="1.2" fill="#808080"/>
    <rect id="ag" x="80.428" y="2.0107" width="6.5264" height="9.986" rx="1.2" ry="1.2" fill="#808080"/>
    <rect id="ah" x="81.114" y="2.0621" width="1.7185" height="57.396" rx=".8" ry=".8" fill="#5e5e5e"/>
    <rect id="ai" x="82.832" y="2.0621" width="1.7185" height="57.396" rx=".8" ry=".8" fill="#ff8c8c"/>
   </g>
   <rect id="aj" x="84.55" y="2.0621" width="1.7185" height="57.396" rx=".8" ry=".8" fill="#f9f9f9"/>
   <g>
    <rect id="ak" x="80.55" y="-63.554" width="6.5264" height="9.986" rx="1.2" ry="1.2" fill="#808080"/>
    <rect id="al" x="80.55" y="-111.13" width="6.5264" height="9.986" rx="1.2" ry="1.2" fill="#808080"/>
    <rect id="am" x="81.236" y="-111.04" width="1.7185" height="57.396" rx=".8" ry=".8" fill="#5e5e5e"/>
    <rect id="an" x="82.954" y="-111.04" width="1.7185" height="57.396" rx=".8" ry=".8" fill="#ff8c8c"/>
   </g>
   <rect id="ao" x="84.672" y="-111.04" width="1.7185" height="57.396" rx=".8" ry=".8" fill="#f9f9f9"/>
  </g>
  <g id="ap">
   <g>
    <rect id="aq" x="65.409" y="91.03" width="3.7432" height="1.5858" rx=".73456" ry=".73456" fill="#686868"/>
    <rect id="ar" transform="rotate(-45)" x="-31.105" y="120.4" width="12.447" height="23.774" rx=".6524" ry=".6524" fill="#c3c3c3"/>
    <rect id="as" transform="rotate(-45)" x="-31.977" y="131.09" width="3.6021" height="21.996" rx=".73456" ry=".73456" fill="#686868"/>
   </g>
   <g id="at" transform="matrix(.13213 -.13213 .2876 .2876 -60.676 56.279)">
    <rect id="au" x="239.92" y="357.69" width="102.82" height="4.427" rx="1.992" ry="1.992" fill="#d8d8d8"/>
   </g>
   <g>
    <rect id="av" transform="rotate(-45)" x="-32.482" y="119.38" width="6.0908" height="2.2199" rx=".73456" ry=".73456" fill="#686868"/>
    <rect id="aw" transform="rotate(-45)" x="-33.019" y="115.02" width="7.4855" height="2.0532" rx=".44008" ry=".44008" fill="#a2a2a2"/>
    <rect id="ax" x="63.836" y="89.403" width="6.8896" height="2.0532" rx=".73456" ry=".73456" fill="#a2a2a2"/>
   </g>
   <g fill="#c3c3c3">
    <rect id="ay" x="62.469" y="88.123" width="10.168" height="2.1939" rx=".6524" ry=".6524"/>
    <path id="az" d="m71.94 88.101a3.295 3.295 0 0 1 2.4542 5.6288l-1.558-1.5668a1.0854 1.0854 0 0 0-0.80846-1.8542z" data-bx-shape="pie 650.297 786.251 30.803 93.508 357.725 135.16 1@8cc45d37"/>
    <rect id="ba" transform="rotate(-45)" x="-35.093" y="116.69" width="22.22" height="2.1939" rx=".6524" ry=".6524"/>
   </g>
   <g>
    <rect id="bb" transform="rotate(-45)" x="-52.931" y="118.6" width="46.942" height="1.8006" rx=".81021" ry=".81021" fill="#d8d8d8"/>
    <rect id="bc" transform="rotate(-45)" x="-52.931" y="118.6" width="10.409" height="5.4884" rx=".81021" ry=".81021" fill="#d8d8d8"/>
    <rect id="bd" transform="rotate(-45)" x="-34.444" y="144.18" width="8.0525" height="3.3417" rx=".6524" ry=".6524" fill="#c3c3c3"/>
   </g>
   <g fill="#686868">
    <path id="be" d="m85.049 131.44 3.5249-3.5249c0.28674-0.28674 0.75208-0.28674 1.0388 0l0.05981 0.0598c-0.33448 0.40351-0.31291 1.0026 0.06529 1.3808 0.3782 0.3782 0.97727 0.39977 1.3808 0.0653l0.04429 0.0443c0.28674 0.28673 0.28674 0.75207 0 1.0388l-3.5249 3.5249c-0.28674 0.28674-0.75208 0.28674-1.0388 0l-0.04429-0.0443c0.33448-0.40352 0.31291-1.0026-0.06529-1.3808-0.3782-0.37821-0.97728-0.39978-1.3808-0.0653l-0.05981-0.0598c-0.28674-0.28675-0.28674-0.75208 0-1.0388z"/>
    <rect id="bf" transform="rotate(-45)" x="-34.664" y="151.7" width="8.7016" height="2.1972" rx=".73456" ry=".73456"/>
    <rect id="bg" transform="rotate(-45)" x="-35.914" y="155.95" width="11.201" height="4.1064" rx=".73456" ry=".73456"/>
   </g>
   <g id="bh" transform="rotate(-45 13.855 147.83)" fill="#999">
    <rect id="bi" x="36.866" y="157.6" width="91.195" height="7" ry="1.5968"/>
    <path id="bj" transform="matrix(.26458 0 0 .1774 54.329 90.783)" d="m-58.474 415.76c-5.0373 2.9083-33.582-13.572-33.582-19.389 0-5.8166 28.545-22.297 33.582-19.389s5.0373 35.869-2e-6 38.777z"/>
   </g>
   <g fill="#d8d8d8">
    <rect id="bk" transform="rotate(-45)" x="-16.399" y="118.6" width="10.409" height="5.4884" rx=".81021" ry=".81021"/>
    <path id="bl" d="m78.394 93.881q1.6287-0.34599 1.2827 1.2827l-1.0037 4.7265q-0.34599 1.6287-1.6287 0.34599l-3.7227-3.7227q-1.2827-1.2827 0.34599-1.6287z" data-bx-shape="triangle 33.925 108.048 21.864 16.828 0.5 0.204 1@84bd08ab"/>
    <path id="bm" d="m52.562 119.71q1.6287-0.34599 1.2827 1.2827l-1.0037 4.7265q-0.34599 1.6287-1.6287 0.34599l-3.7227-3.7228q-1.2827-1.2827 0.34599-1.6287z" data-bx-shape="triangle 33.925 108.048 21.864 16.828 0.5 0.204 1@84bd08ab"/>
   </g>
  </g>
 </g>
</svg>
